HIERARCHY
ROOT Hips
{
	OFFSET	0.000000	0.000000	0.000000
	CHANNELS	6	Xposition	Yposition	Zposition	Zrotation	Xrotation	Yrotation
	JOINT LeftHip
	{
		OFFSET	15.500000	-8.200000	0.000000
		CHANNELS	3	Zrotation	Xrotation	Yrotation
		JOINT LeftKnee
		{
			OFFSET	0.000000	-41.000000	0.000000
			CHANNELS	3	Zrotation	Xrotation	Yrotation
			JOINT LeftAnkle
			{
				OFFSET	0.000000	-41.500000	0.000000
				CHANNELS	3	Zrotation	Xrotation	Yrotation
				End Site
				{
					OFFSET	0.000000	0.000000	22.875000
				}
			}
		}
	}
	JOINT RightHip
	{
		OFFSET	-15.500000	-8.200000	0.000000
		CHANNELS	3	Zrotation	Xrotation	Yrotation
		JOINT RightKnee
		{
			OFFSET	0.000000	-41.000000	0.000000
			CHANNELS	3	Zrotation	Xrotation	Yrotation
			JOINT RightAnkle
			{
				OFFSET	0.000000	-41.500000	0.000000
				CHANNELS	3	Zrotation	Xrotation	Yrotation
				End Site
				{
					OFFSET	0.000000	0.000000	22.875000
				}
			}
		}
	}
	JOINT Chest
	{
		OFFSET	0.000000	16.666667	0.000000
		CHANNELS	3	Zrotation	Xrotation	Yrotation
		JOINT LeftCollar
		{
			OFFSET	4.625000	33.333333	1.541667
			CHANNELS	3	Zrotation	Xrotation	Yrotation
			JOINT LeftShoulder
			{
				OFFSET	13.875000	0.000000	0.000000
				CHANNELS	3	Zrotation	Xrotation	Yrotation
				JOINT LeftElbow
				{
					OFFSET	0.000000	-28.000000	0.000000
					CHANNELS	3	Zrotation	Xrotation	Yrotation
					JOINT LeftWrist
					{
						OFFSET	0.000000	-25.000000	0.000000
						CHANNELS	3	Zrotation	Xrotation	Yrotation
						End Site
						{
							OFFSET	0.000000	-7.500000	0.000000
						}
					}
				}
			}
		}
		JOINT RightCollar
		{
			OFFSET	-4.625000	33.333333	1.541667
			CHANNELS	3	Zrotation	Xrotation	Yrotation
			JOINT RightShoulder
			{
				OFFSET	-13.875000	0.000000	0.000000
				CHANNELS	3	Zrotation	Xrotation	Yrotation
				JOINT RightElbow
				{
					OFFSET	0.000000	-28.000000	0.000000
					CHANNELS	3	Zrotation	Xrotation	Yrotation
					JOINT RightWrist
					{
						OFFSET	0.000000	-25.000000	0.000000
						CHANNELS	3	Zrotation	Xrotation	Yrotation
						End Site
						{
							OFFSET	0.000000	-7.500000	0.000000
						}
					}
				}
			}
		}
		JOINT Neck
		{
			OFFSET	0.000000	33.333333	0.000000
			CHANNELS	3	Zrotation	Xrotation	Yrotation
			JOINT Head
			{
				OFFSET	0.000000	12.000000	0.000000
				CHANNELS	3	Zrotation	Xrotation	Yrotation
				End Site
				{
					OFFSET	0.000000	15.000000	0.000000
				}
			}
		}
	}
}
MOTION
Frames:	33
Frame Time:	0.012000
16.75	32.27	-73.79	29.80	-5.66	84.93	10.68	-65.36	28.27	0.00	29.02	0.00	4.13	39.85	-5.55	-6.58	-42.33	-16.37	0.00	19.07	0.00	-0.81	41.97	4.31	1.44	8.19	4.95	0.00	0.00	0.00	12.57	-1.79	36.27	-11.43	-6.13	-37.75	-0.27	-0.34	0.00	0.00	0.00	0.00	-0.73	-12.25	-7.58	18.51	-3.39	28.65	0.26	-5.97	0.00	0.00	0.00	0.00	-20.05	17.91	-31.80
16.75	32.27	-73.79	29.80	-5.66	84.93	10.69	-65.36	28.30	0.00	29.04	0.00	4.11	39.84	-5.53	-6.58	-42.32	-16.41	0.00	19.11	0.00	-0.81	41.96	4.31	1.45	8.21	4.94	0.00	0.00	0.00	12.59	-1.78	36.27	-11.46	-6.11	-37.66	-0.30	-0.34	0.00	0.00	0.00	0.00	-0.71	-12.23	-7.60	18.51	-3.40	28.66	0.25	-5.97	0.00	0.00	0.00	0.00	-20.06	17.90	-31.79
16.75	32.26	-73.90	29.80	-5.66	84.93	10.68	-65.36	28.29	0.00	29.04	0.00	4.10	39.83	-5.53	-6.58	-42.32	-16.40	0.00	19.11	0.00	-0.81	41.96	4.32	1.46	8.22	4.94	0.00	0.00	0.00	12.61	-1.74	36.27	-11.48	-6.09	-37.67	-0.30	-0.34	0.00	0.00	0.00	0.00	-0.71	-12.19	-7.61	18.50	-3.40	28.67	0.26	-5.97	0.00	0.00	0.00	0.00	-20.07	17.88	-31.79
16.75	32.26	-73.90	29.80	-5.67	84.86	10.69	-65.36	28.30	0.00	29.03	0.00	4.10	39.82	-5.54	-6.60	-42.33	-16.45	0.00	19.12	0.00	-0.81	41.94	4.35	1.47	8.24	4.92	0.00	0.00	0.00	12.63	-1.77	36.25	-11.48	-6.06	-37.67	-0.30	-0.35	0.00	0.00	0.00	0.00	-0.69	-12.18	-7.61	18.47	-3.42	28.66	0.27	-5.97	0.00	0.00	0.00	0.00	-20.02	18.01	-31.75
16.73	32.25	-73.98	29.80	-5.67	84.86	10.68	-65.35	28.28	0.00	29.03	0.00	4.10	39.83	-5.55	-6.60	-42.33	-16.46	0.00	19.12	0.00	-0.80	41.97	4.34	1.47	8.24	4.92	0.00	0.00	0.00	12.63	-1.76	36.29	-11.52	-6.11	-37.71	-0.29	-0.36	0.00	0.00	0.00	0.00	-0.70	-12.17	-7.61	18.49	-3.42	28.66	0.26	-5.97	0.00	0.00	0.00	0.00	-20.02	18.00	-31.75
16.74	32.25	-73.98	29.80	-5.67	84.86	10.68	-65.35	28.27	0.00	29.03	0.00	4.10	39.84	-5.56	-6.59	-42.34	-16.41	0.00	19.08	0.00	-0.78	42.00	4.29	1.47	8.24	4.93	0.00	0.00	0.00	12.65	-1.76	36.30	-11.54	-6.10	-37.70	-0.28	-0.36	0.00	0.00	0.00	0.00	-0.70	-12.17	-7.62	18.47	-3.39	28.65	0.26	-5.97	0.00	0.00	0.00	0.00	-20.02	18.00	-31.75
16.74	32.25	-73.98	29.78	-5.72	84.78	10.68	-65.34	28.26	0.00	29.02	0.00	4.09	39.83	-5.54	-6.59	-42.34	-16.43	0.00	19.07	0.00	-0.78	42.02	4.27	1.48	8.25	4.92	0.00	0.00	0.00	12.66	-1.76	36.28	-11.56	-6.10	-37.67	-0.29	-0.36	0.00	0.00	0.00	0.00	-0.68	-12.16	-7.62	18.45	-3.40	28.64	0.26	-5.97	0.00	0.00	0.00	0.00	-19.96	18.16	-31.73
16.73	32.25	-74.12	29.78	-5.72	84.78	10.70	-65.32	28.32	0.00	28.96	0.00	4.09	39.80	-5.56	-6.59	-42.34	-16.43	0.00	19.06	0.00	-0.79	42.00	4.28	1.52	8.25	4.92	0.00	0.00	0.00	12.72	-1.78	36.24	-11.60	-6.05	-37.65	-0.30	-0.36	0.00	0.00	0.00	0.00	-0.60	-12.18	-7.61	18.38	-3.45	28.58	0.27	-5.97	0.00	0.00	0.00	0.00	-20.00	18.16	-31.73
16.71	32.25	-74.11	29.78	-5.72	84.78	10.69	-65.31	28.32	0.00	28.96	0.00	4.09	39.79	-5.55	-6.59	-42.34	-16.41	0.00	19.06	0.00	-0.79	42.01	4.28	1.52	8.26	4.91	0.00	0.00	0.00	12.71	-1.79	36.22	-11.59	-6.05	-37.63	-0.31	-0.36	0.00	0.00	0.00	0.00	-0.61	-12.17	-7.61	18.38	-3.47	28.56	0.26	-5.98	0.00	0.00	0.00	0.00	-20.00	18.16	-31.73
16.70	32.25	-74.11	29.80	-5.75	84.72	10.69	-65.31	28.31	0.00	28.97	0.00	4.11	39.82	-5.54	-6.60	-42.35	-16.42	0.00	19.06	0.00	-0.79	42.00	4.31	1.52	8.27	4.91	0.00	0.00	0.00	12.70	-1.78	36.20	-11.58	-6.06	-37.63	-0.32	-0.37	0.00	0.00	0.00	0.00	-0.60	-12.17	-7.61	18.36	-3.46	28.57	0.26	-5.98	0.00	0.00	0.00	0.00	-19.95	18.25	-31.68
16.70	32.25	-74.22	29.80	-5.75	84.72	10.69	-65.31	28.32	0.00	28.97	0.00	4.14	39.86	-5.54	-6.60	-42.33	-16.43	0.00	19.06	0.00	-0.79	42.00	4.31	1.52	8.29	4.91	0.00	0.00	0.00	12.69	-1.77	36.18	-11.59	-6.08	-37.62	-0.32	-0.37	0.00	0.00	0.00	0.00	-0.55	-12.10	-7.52	18.35	-3.47	28.58	0.25	-5.99	0.00	0.00	0.00	0.00	-19.95	18.24	-31.70
16.72	32.25	-74.23	29.80	-5.75	84.72	10.71	-65.31	28.36	0.00	28.98	0.00	4.15	39.86	-5.58	-6.60	-42.33	-16.42	0.00	19.06	0.00	-0.78	41.98	4.32	1.52	8.29	4.92	0.00	0.00	0.00	12.67	-1.76	36.16	-11.57	-6.09	-37.63	-0.31	-0.37	0.00	0.00	0.00	0.00	-0.56	-12.11	-7.52	18.37	-3.47	28.59	0.25	-5.99	0.00	0.00	0.00	0.00	-19.94	18.24	-31.70
16.72	32.25	-74.23	29.81	-5.78	84.67	10.71	-65.31	28.36	0.00	28.98	0.00	4.13	39.86	-5.57	-6.59	-42.35	-16.27	0.00	18.92	0.00	-0.74	41.99	4.26	1.52	8.29	4.93	0.00	0.00	0.00	12.67	-1.77	36.15	-11.57	-6.07	-37.62	-0.31	-0.36	0.00	0.00	0.00	0.00	-0.55	-12.12	-7.52	18.38	-3.47	28.57	0.26	-5.99	0.00	0.00	0.00	0.00	-19.88	18.38	-31.74
16.71	32.25	-74.32	29.81	-5.78	84.67	10.71	-65.31	28.36	0.00	29.00	0.00	4.11	39.85	-5.58	-6.59	-42.35	-16.26	0.00	18.90	0.00	-0.74	41.99	4.27	1.52	8.30	4.93	0.00	0.00	0.00	12.65	-1.77	36.13	-11.56	-6.07	-37.64	-0.31	-0.37	0.00	0.00	0.00	0.00	-0.56	-12.15	-7.50	18.37	-3.38	28.58	0.26	-5.99	0.00	0.00	0.00	0.00	-19.88	18.38	-31.74
16.71	32.25	-74.32	29.81	-5.78	84.67	10.71	-65.31	28.37	0.00	29.00	0.00	4.10	39.86	-5.57	-6.60	-42.37	-16.29	0.00	18.91	0.00	-0.78	42.00	4.26	1.54	8.32	4.92	0.00	0.00	0.00	12.67	-1.77	36.07	-11.56	-6.09	-37.68	-0.31	-0.37	0.00	0.00	0.00	0.00	-0.53	-12.14	-7.51	18.34	-3.39	28.58	0.28	-5.99	0.00	0.00	0.00	0.00	-19.90	18.36	-31.74
16.72	32.25	-74.32	29.80	-5.79	84.59	10.72	-65.31	28.38	0.00	29.01	0.00	4.11	39.83	-5.59	-6.60	-42.37	-16.30	0.00	18.91	0.00	-0.79	42.00	4.27	1.53	8.31	4.93	0.00	0.00	0.00	12.66	-1.79	36.08	-11.54	-6.09	-37.67	-0.35	-0.34	0.00	0.00	0.00	0.00	-0.55	-12.15	-7.51	18.36	-3.38	28.59	0.25	-6.00	0.00	0.00	0.00	0.00	-19.85	18.59	-31.73
16.71	32.25	-74.42	29.80	-5.79	84.59	10.72	-65.32	28.37	0.00	29.05	0.00	4.09	39.82	-5.57	-6.60	-42.37	-16.30	0.00	18.91	0.00	-0.80	42.01	4.24	1.54	8.31	4.93	0.00	0.00	0.00	12.67	-1.83	36.07	-11.48	-5.97	-37.56	-0.35	-0.34	0.00	0.00	0.00	0.00	-0.50	-12.18	-7.48	18.35	-3.37	28.58	0.25	-6.00	0.00	0.00	0.00	0.00	-19.86	18.59	-31.74
16.72	32.24	-74.43	29.80	-5.79	84.59	10.70	-65.30	28.35	0.00	29.04	0.00	4.10	39.83	-5.57	-6.60	-42.35	-16.32	0.00	18.92	0.00	-0.82	42.03	4.26	1.52	8.31	4.96	0.00	0.00	0.00	12.62	-1.82	36.08	-11.43	-6.02	-37.57	-0.36	-0.34	0.00	0.00	0.00	0.00	-0.53	-12.19	-7.49	18.41	-3.34	28.59	0.23	-6.00	0.00	0.00	0.00	0.00	-19.83	18.60	-31.77
16.73	32.25	-74.43	29.81	-5.83	84.51	10.71	-65.30	28.37	0.00	29.03	0.00	4.11	39.83	-5.58	-6.60	-42.34	-16.33	0.00	18.93	0.00	-0.86	41.99	4.25	1.50	8.30	4.97	0.00	0.00	0.00	12.60	-1.82	36.11	-11.41	-6.04	-37.60	-0.32	-0.37	0.00	0.00	0.00	0.00	-0.56	-12.21	-7.50	18.45	-3.29	28.59	0.23	-5.98	0.00	0.00	0.00	0.00	-19.77	18.74	-31.69
16.71	32.24	-74.56	29.81	-5.83	84.51	10.71	-65.30	28.38	0.00	29.04	0.00	4.12	39.81	-5.59	-6.60	-42.34	-16.32	0.00	18.93	0.00	-0.84	41.96	4.26	1.50	8.29	4.98	0.00	0.00	0.00	12.58	-1.82	36.11	-11.40	-6.05	-37.61	-0.32	-0.36	0.00	0.00	0.00	0.00	-0.59	-12.22	-7.56	18.48	-3.28	28.60	0.23	-5.99	0.00	0.00	0.00	0.00	-19.77	18.75	-31.70
16.71	32.24	-74.56	29.81	-5.83	84.51	10.71	-65.29	28.38	0.00	29.04	0.00	4.13	39.80	-5.61	-6.60	-42.33	-16.34	0.00	18.95	0.00	-0.84	41.93	4.25	1.50	8.29	4.99	0.00	0.00	0.00	12.58	-1.83	36.12	-11.40	-6.06	-37.61	-0.31	-0.36	0.00	0.00	0.00	0.00	-0.60	-12.22	-7.58	18.50	-3.26	28.58	0.22	-5.99	0.00	0.00	0.00	0.00	-19.76	18.75	-31.71
16.72	32.24	-74.56	29.82	-5.86	84.45	10.72	-65.29	28.39	0.00	29.04	0.00	4.13	39.82	-5.61	-6.61	-42.32	-16.43	0.00	19.02	0.00	-0.87	41.94	4.30	1.50	8.27	5.00	0.00	0.00	0.00	12.59	-1.83	36.12	-11.41	-6.07	-37.62	-0.31	-0.35	0.00	0.00	0.00	0.00	-0.61	-12.22	-7.60	18.53	-3.28	28.59	0.21	-6.00	0.00	0.00	0.00	0.00	-19.74	18.89	-31.63
16.70	32.24	-74.66	29.82	-5.86	84.45	10.71	-65.29	28.38	0.00	29.03	0.00	4.13	39.82	-5.60	-6.61	-42.33	-16.42	0.00	19.01	0.00	-0.86	41.92	4.32	1.50	8.25	5.01	0.00	0.00	0.00	12.58	-1.79	36.12	-11.47	-6.20	-37.74	-0.32	-0.35	0.00	0.00	0.00	0.00	-0.64	-12.30	-7.65	18.54	-3.22	28.62	0.20	-5.99	0.00	0.00	0.00	0.00	-19.73	18.91	-31.63
16.70	32.24	-74.67	29.82	-5.86	84.45	10.72	-65.29	28.40	0.00	29.02	0.00	4.12	39.83	-5.59	-6.61	-42.33	-16.43	0.00	19.01	0.00	-0.87	41.91	4.34	1.48	8.27	5.03	0.00	0.00	0.00	12.54	-1.77	36.17	-11.43	-6.21	-37.69	-0.32	-0.35	0.00	0.00	0.00	0.00	-0.69	-12.26	-7.65	18.60	-3.23	28.62	0.20	-6.00	0.00	0.00	0.00	0.00	-19.70	18.90	-31.65
16.70	32.24	-74.66	29.81	-5.90	84.36	10.73	-65.29	28.42	0.00	29.02	0.00	4.13	39.83	-5.60	-6.62	-42.31	-16.52	0.00	19.10	0.00	-0.88	41.97	4.36	1.48	8.26	5.04	0.00	0.00	0.00	12.55	-1.76	36.16	-11.44	-6.23	-37.72	-0.34	-0.36	0.00	0.00	0.00	0.00	-0.68	-12.28	-7.66	18.59	-3.22	28.62	0.20	-6.00	0.00	0.00	0.00	0.00	-19.67	19.08	-31.56
16.69	32.24	-74.80	29.81	-5.90	84.36	10.73	-65.28	28.45	0.00	29.04	0.00	4.13	39.82	-5.59	-6.62	-42.32	-16.53	0.00	19.11	0.00	-0.88	41.97	4.34	1.48	8.26	5.05	0.00	0.00	0.00	12.55	-1.74	36.17	-11.44	-6.26	-37.72	-0.33	-0.36	0.00	0.00	0.00	0.00	-0.69	-12.29	-7.66	18.60	-3.21	28.62	0.20	-6.00	0.00	0.00	0.00	0.00	-19.66	19.09	-31.57
16.70	32.24	-74.82	29.81	-5.90	84.36	10.74	-65.28	28.48	0.00	29.04	0.00	4.16	39.83	-5.62	-6.61	-42.31	-16.53	0.00	19.11	0.00	-0.87	41.97	4.36	1.51	8.26	5.03	0.00	0.00	0.00	12.65	-1.76	36.21	-11.49	-6.20	-37.73	-0.34	-0.37	0.00	0.00	0.00	0.00	-0.64	-12.30	-7.66	18.53	-3.23	28.60	0.21	-6.01	0.00	0.00	0.00	0.00	-19.70	19.09	-31.54
16.71	32.24	-74.82	29.82	-5.95	84.28	10.75	-65.28	28.48	0.00	29.04	0.00	4.16	39.83	-5.61	-6.62	-42.30	-16.53	0.00	19.11	0.00	-0.87	41.94	4.36	1.55	8.27	5.03	0.00	0.00	0.00	12.70	-1.73	36.17	-11.52	-6.19	-37.74	-0.34	-0.37	0.00	0.00	0.00	0.00	-0.60	-12.28	-7.67	18.48	-3.23	28.58	0.22	-6.01	0.00	0.00	0.00	0.00	-19.68	19.20	-31.44
16.69	32.23	-74.98	29.82	-5.95	84.28	10.76	-65.28	28.50	0.00	29.02	0.00	4.18	39.85	-5.64	-6.62	-42.30	-16.54	0.00	19.11	0.00	-0.88	41.96	4.34	1.57	8.26	5.03	0.00	0.00	0.00	12.75	-1.73	36.16	-11.56	-6.18	-37.74	-0.34	-0.37	0.00	0.00	0.00	0.00	-0.60	-12.25	-7.70	18.47	-3.28	28.53	0.23	-6.01	0.00	0.00	0.00	0.00	-19.70	19.21	-31.44
16.69	32.23	-74.97	29.82	-5.95	84.28	10.79	-65.29	28.55	0.00	29.01	0.00	4.17	39.85	-5.63	-30.39	-74.04	-36.86	0.00	52.78	0.00	-4.55	41.70	6.64	1.58	8.25	5.04	0.00	0.00	0.00	12.76	-1.74	36.15	-11.56	-6.19	-37.74	-0.31	-0.39	0.00	0.00	0.00	0.00	-0.60	-12.26	-7.71	18.47	-3.29	28.53	0.23	-6.01	0.00	0.00	0.00	0.00	-19.71	19.22	-31.44
16.68	32.22	-74.96	29.81	-6.00	84.19	10.81	-65.29	28.58	0.00	29.02	0.00	4.17	39.87	-5.63	-1.21	-40.85	-9.87	-6.42	15.32	-2.77	3.06	43.60	-0.66	1.58	8.25	5.04	0.00	0.00	0.00	12.77	-1.72	36.15	-11.57	-6.22	-37.72	-0.32	-0.39	0.00	0.00	0.00	0.00	-0.60	-12.25	-7.72	18.49	-3.29	28.54	0.23	-6.01	0.00	0.00	0.00	0.00	-19.55	19.49	-31.26
16.68	32.21	-75.11	29.81	-6.00	84.19	10.81	-65.28	28.60	0.00	29.02	0.00	4.18	39.87	-5.64	-1.79	-41.03	-10.59	-5.70	15.72	-2.44	2.60	43.44	-0.07	1.59	8.24	5.04	0.00	0.00	0.00	12.79	-1.73	36.13	-11.58	-6.20	-37.71	-0.32	-0.39	0.00	0.00	0.00	0.00	-0.60	-12.25	-7.74	18.48	-3.31	28.55	0.22	-6.01	0.00	0.00	0.00	0.00	-19.57	19.49	-31.26
16.68	32.21	-75.11	29.81	-6.00	84.19	10.82	-65.28	28.62	0.00	29.03	0.00	4.18	39.84	-5.68	-2.38	-41.22	-11.34	-4.99	16.11	-2.12	2.16	43.27	0.47	1.59	8.24	5.05	0.00	0.00	0.00	12.80	-1.72	36.13	-11.57	-6.16	-37.80	-0.37	-0.36	0.00	0.00	0.00	0.00	-0.60	-12.26	-7.73	18.48	-3.29	28.55	0.22	-6.01	0.00	0.00	0.00	0.00	-19.56	19.49	-31.26
